<svg xmlns="http://www.w3.org/2000/svg" xmlns:xlink="http://www.w3.org/1999/xlink" width="500" zoomAndPan="magnify" viewBox="0 0 375 149.999998" height="200" preserveAspectRatio="xMidYMid meet" version="1.0"><defs><g/></defs><path stroke-linecap="butt" transform="matrix(0.75, 0, 0, 0.75, 5.711333, 24.375001)" fill="none" stroke-linejoin="miter" d="M 46.713017 31.651043 C 44.025517 31.651043 41.317183 31.838543 38.7026 31.838543 C 36.29635 31.838543 33.989058 31.932293 31.556766 31.651043 C 30.499475 31.552084 29.436974 31.744793 28.473433 31.838543 C 26.942183 35.328126 25.973433 38.791668 24.509891 42.06771 C 22.978641 45.651044 22.108849 49.421877 20.270307 52.885419 C 18.926557 55.406252 18.525515 58.307294 17.463015 60.901044 C 16.713015 62.640628 16.311974 64.57292 15.530724 66.203128 C 13.811974 69.786462 12.348432 73.557295 10.817182 77.208337 C 10.04114 79.046879 9.567182 80.885421 8.69739 82.630212 C 7.327598 85.130213 6.457806 87.838546 5.608848 90.432296 C 4.832806 92.95313 3.582806 95.260421 2.614056 97.692713 C 2.213015 98.750005 2.405723 99.317713 2.806765 100.000005 C 5.796348 99.906255 8.69739 99.718755 12.067182 99.812505 C 13.035932 98.255213 13.504682 95.947921 14.473432 93.916671 C 15.530724 91.70313 16.311974 89.489588 17.275515 87.062504 C 25.572391 87.557296 33.895308 86.375004 42.285934 87.156254 C 43.838017 91.51563 45.655725 95.854171 47.114059 100.187505 C 47.989059 100.588547 48.739059 100.000005 49.426559 100.093755 C 53.879684 100.187505 58.311976 100.093755 62.73906 99.812505 C 65.546352 99.625005 68.353643 100.000005 71.155727 99.526047 C 72.025519 99.317713 73.181769 99.906255 73.843227 98.656255 C 64.577601 76.739587 57.249476 54.041669 47.796351 32.026043 C 47.588017 31.932293 47.114059 31.651043 46.713017 31.651043 Z M 30.311974 53.380211 C 33.301558 61.296878 35.8276 69.406253 38.817183 77.421879 C 32.739058 77.609379 26.843224 77.984379 20.952599 77.609379 C 24.228641 69.687503 26.541141 61.296878 30.311974 53.380211 Z M 102.145312 32.026043 C 101.05677 32.145834 99.999479 32.427084 98.936979 32.333334 C 93.916145 31.744793 88.989061 32.026043 83.973436 32.026043 C 83.405728 32.026043 82.629686 31.932293 82.249478 32.520834 C 82.436978 54.817711 82.155728 77.515629 82.723436 100.000005 C 83.780728 100.281255 99.43177 100.281255 100.77552 100.000005 C 101.65052 98.348963 102.426562 96.416672 103.296354 94.697921 C 105.020312 95.755213 106.666146 96.723963 108.317187 97.593755 C 111.879688 99.411463 115.556771 101.156255 119.702605 101.343755 C 121.634896 101.437505 123.660938 101.250005 125.59323 101.156255 C 131.489064 100.968755 136.108856 98.255213 139.593231 93.635421 C 142.400523 89.864588 143.931773 85.526046 144.900523 80.979171 C 145.864065 76.453129 145.864065 71.906253 145.181773 67.26042 C 144.900523 64.47917 144.025523 61.770836 142.280731 59.364586 C 140.254689 56.562503 137.947397 53.947919 135.046356 51.916669 C 131.296355 49.229169 126.93698 48.145835 122.504688 47.958335 C 118.051563 47.770835 113.905729 49.421877 109.848437 51.140627 C 109.072396 51.447919 108.410937 51.729169 107.822396 52.411461 C 107.259896 53.166669 106.291146 53.380211 105.421354 54.442711 C 105.327604 54.041669 105.327604 52.885419 105.327604 52.604169 L 105.327604 34.833335 C 105.327604 33.864585 105.421354 32.895834 104.546354 32.239584 C 103.770312 31.838543 102.99427 32.026043 102.145312 32.026043 Z M 111.098438 59.651044 C 115.364063 57.812503 119.228646 59.062503 121.447396 63.796878 C 122.410938 65.82292 122.884897 68.04167 122.884897 70.375003 C 122.791147 73.458337 123.166147 76.546879 122.317188 79.541671 C 121.541146 82.041671 120.666146 84.562504 119.327605 86.776046 C 116.119271 92.07813 111.405729 91.98438 106.952604 88.119796 C 106.572396 87.744796 106.197396 87.250004 105.702604 86.682296 C 105.327604 79.046879 105.421354 71.432295 105.796354 63.796878 C 107.259896 61.958336 109.072396 60.520836 111.098438 59.651044 Z M 163.140107 29.526043 C 160.145315 30.494793 157.645315 31.744793 156.468232 34.927085 C 156.088024 36.078126 155.806773 37.260418 156.088024 38.31771 C 156.869274 43.526043 160.520315 45.557294 164.879691 45.838544 C 166.416149 45.838544 167.874483 46.026044 169.311983 45.932294 C 173.270316 45.651044 176.645316 44.307293 178.692191 40.343752 C 179.54115 38.604168 179.6349 34.927085 178.0099 33.088543 C 176.645316 31.651043 175.108858 30.401043 173.082816 29.619793 C 169.713024 28.276043 166.416149 28.468751 163.140107 29.526043 Z M 178.47865 49.114585 C 171.150524 49.328127 163.233857 48.927085 156.582815 49.421877 C 155.900523 50.078127 155.806773 50.671877 155.806773 51.260419 C 155.900523 52.697919 155.900523 54.817711 155.994273 56.161461 C 156.374482 60.119794 156.186982 63.515628 156.186982 67.380211 C 156.186982 71.223962 155.806773 75.088545 155.806773 79.046879 C 155.900523 84.255212 156.280732 89.369796 156.186982 94.604171 C 156.186982 96.322922 155.994273 97.973963 156.280732 99.906255 C 163.728649 100.093755 171.150524 100.093755 178.47865 99.812505 C 179.35365 98.937505 179.2599 98.161463 179.16615 97.385422 C 178.97865 96.041671 178.879691 94.791671 178.97865 93.42188 C 178.97865 88.708338 179.16615 84.161462 179.16615 79.541671 C 179.0724 74.802087 179.0724 70.067712 179.0724 65.35417 C 179.0724 61.182294 179.2599 56.375003 179.2599 52.203127 C 179.35365 51.260419 179.2599 50.171877 178.47865 49.114585 Z M 215.166152 48.359377 C 212.270318 48.734377 209.369277 49.703127 206.588026 50.671877 C 198.364068 53.567711 192.869276 58.963544 190.348442 67.473961 C 189.192192 71.526045 189.004692 75.489587 189.405734 79.635421 C 189.780734 83.500004 191.124484 87.062504 193.343234 90.145838 C 196.733859 94.791671 200.978651 98.348963 206.869276 99.718755 C 206.963026 99.718755 207.061985 99.812505 207.249485 99.812505 C 210.431777 101.156255 213.822402 101.343755 217.192194 101.651047 C 220.186986 101.932297 223.181777 101.651047 226.077611 101.651047 C 233.410945 101.250005 240.17657 99.625005 245.785945 94.510421 C 247.030737 93.42188 247.905737 92.07813 248.968237 90.739588 C 250.593237 88.614588 251.770321 86.187504 252.431779 83.500004 C 253.301571 79.729171 253.681779 75.864587 252.926571 72.000003 C 252.145321 68.22917 251.181779 64.671878 249.155737 61.395836 C 246.254695 56.843753 242.577612 53.473961 237.77032 51.354169 C 234.963028 50.078127 232.067195 49.114585 229.072403 48.546877 C 224.431777 47.677085 219.811986 47.677085 215.166152 48.359377 Z M 222.119277 58.588544 C 224.051569 58.776044 225.489069 59.744794 226.765111 61.088544 C 229.166153 63.703128 229.546361 67.380211 229.754694 70.750003 L 229.754694 74.802087 C 229.754694 78.270837 229.546361 81.755212 228.483861 85.031254 C 227.916153 86.682296 227.140111 88.213546 225.890111 89.369796 C 222.900527 92.479171 218.843235 91.70313 216.322402 88.520838 C 215.567194 87.651046 214.791152 86.494796 214.39011 85.432296 C 213.14011 82.135421 212.95261 78.671879 212.76511 75.276045 C 212.457818 71.031253 213.822402 67.07292 215.259902 63.114586 C 216.322402 60.119794 219.124486 58.307294 222.119277 58.588544 Z M 323.588033 31.838543 C 322.3172 31.932293 321.0672 32.239584 319.91095 32.026043 C 316.541158 31.651043 313.051574 32.026043 309.681782 31.838543 C 307.749491 31.744793 305.723449 32.145834 303.697407 32.333334 C 302.728657 35.796876 303.410949 39.38021 303.296365 42.843752 C 303.202615 46.239585 303.015115 50.671877 303.296365 54.229169 C 302.327615 53.380211 301.765115 53.072919 301.364074 52.697919 C 300.207824 51.729169 298.864073 50.671877 297.426573 50.171877 C 295.869282 49.703127 294.71824 48.734377 293.067198 48.546877 C 289.202615 48.052085 285.145323 47.583335 281.186989 48.359377 C 275.791155 49.328127 271.640114 52.109377 268.155738 56.281253 C 266.030738 58.869794 264.879697 61.864586 263.723446 64.765628 C 262.660946 67.567712 262.072405 70.562503 261.978655 73.458337 C 261.978655 77.984379 263.134905 82.135421 264.405738 86.281254 C 265.561988 89.958338 267.49428 93.04688 270.864072 95.260421 C 275.410947 98.562505 280.338031 100.682297 285.832823 101.156255 C 288.233865 101.343755 290.567198 101.343755 292.879698 101.437505 C 295.775532 101.651047 298.395323 100.682297 300.890115 99.317713 C 303.296365 97.973963 305.629699 96.536463 307.561991 94.39063 C 309.374491 95.854171 309.280741 98.843755 311.306783 100.093755 C 315.270324 99.906255 319.53595 99.625005 323.869283 99.906255 C 324.650533 100.000005 325.213033 99.625005 325.614075 98.843755 C 325.405742 95.072921 325.614075 90.833338 325.614075 87.156254 C 325.801575 76.546879 325.994283 65.91667 325.707825 55.312502 C 325.614075 48.833335 325.499492 42.468752 325.801575 35.890626 C 325.801575 35.020835 325.614075 34.171876 325.499492 33.296876 C 325.306783 32.239584 324.744283 31.744793 323.588033 31.838543 Z M 300.207824 60.119794 C 302.233865 61.489586 303.410949 63.208336 303.296365 65.82292 C 303.202615 72.682295 303.296365 79.635421 303.296365 86.494796 C 302.046365 88.406254 300.207824 89.369796 298.489073 90.338546 C 297.025532 91.114588 295.494282 91.020838 294.03074 90.432296 C 290.379698 88.994796 288.541156 85.906254 287.671365 82.229171 C 286.421364 77.703129 286.421364 72.869795 287.478656 68.22917 C 288.046365 65.82292 288.447406 63.421878 290.072406 61.489586 C 292.49949 58.494794 297.025532 57.906253 300.207824 60.119794 Z M 393.759912 49.229169 C 392.509912 49.421877 391.233871 49.421877 390.082829 49.515627 C 385.249495 49.515627 380.535953 49.609377 375.79637 49.703127 C 374.150536 49.703127 373.864078 50.078127 373.864078 51.541669 C 373.770328 53.166669 373.864078 54.723961 373.957828 56.375003 C 374.150536 60.333336 374.45262 64.270836 374.150536 68.22917 C 373.864078 72.494795 373.864078 77.609379 373.957828 81.854171 C 374.150536 85.625004 373.582828 87.062504 370.494286 88.901046 C 367.499494 90.64063 364.015119 88.614588 362.577619 86.375004 C 360.926577 83.880212 360.265119 81.166671 360.265119 78.177087 C 360.358869 70.656253 360.265119 63.208336 360.265119 55.687502 C 360.265119 53.848961 360.265119 51.916669 360.051577 50.171877 C 358.713035 49.609377 339.692201 49.421877 337.947409 49.890627 C 337.379701 51.354169 337.473451 52.885419 337.473451 54.343752 C 337.660951 61.296878 337.098451 68.13542 337.285951 75.088545 C 337.379701 78.364587 337.379701 81.755212 337.567201 85.031254 C 337.759909 88.026046 338.442201 90.927088 340.749493 93.42188 C 344.239076 97.291672 348.29116 99.812505 353.499493 100.473963 C 355.905743 100.776047 358.332827 100.869797 360.739077 101.062505 C 365.759911 101.557297 369.436994 100.000005 373.582828 97.385422 C 375.51512 96.229172 376.082828 95.567713 377.634911 94.01563 C 380.348453 95.45313 380.723453 98.255213 382.942203 100.473963 C 387.489079 99.906255 392.884912 100.093755 397.718246 99.718755 C 397.223454 83.192712 396.655746 66.109378 396.942204 50.078127 C 395.879704 48.927085 394.723454 49.020835 393.759912 49.229169 Z M 457.077624 48.833335 C 450.619291 47.296877 444.634915 48.734377 438.645332 50.953127 C 435.843248 52.010419 433.436998 53.567711 430.916165 55.312502 C 429.171373 53.848961 428.301581 51.260419 427.051581 49.609377 C 419.624497 48.734377 415.384914 49.515627 409.588038 49.609377 C 409.39533 66.296878 409.48908 83.385421 410.056788 100.000005 L 429.853664 100.000005 C 431.103665 100.000005 432.379706 100.093755 433.436998 99.130213 C 433.530748 94.979171 433.129706 91.020838 433.035956 86.968754 C 432.848456 80.697921 432.942206 74.520837 432.942206 68.22917 C 432.942206 66.79167 433.223456 65.35417 433.624498 64.078128 C 435.843248 62.453128 437.77554 60.614586 440.270332 59.651044 C 444.233874 58.187503 448.499499 60.708336 447.910957 65.140628 C 447.910957 68.13542 447.817207 70.656253 448.004707 73.458337 C 448.285957 77.421879 448.192207 81.473962 448.192207 85.526046 C 448.192207 89.182296 448.285957 92.95313 448.285957 96.723963 C 448.285957 97.593755 448.098457 98.656255 448.593249 99.625005 C 449.463041 100.473963 450.311999 100.473963 451.374499 100.473963 C 453.801583 100.281255 455.827624 100.187505 458.233874 100.187505 C 462.379708 100.093755 466.53075 100.093755 470.702625 100.000005 C 471.171375 100.000005 471.551584 100.000005 471.952625 99.526047 C 471.759917 92.07813 471.759917 84.562504 471.452625 77.020837 C 471.265125 72.494795 471.551584 67.94792 471.265125 63.421878 C 470.890125 57.125003 467.400542 53.072919 462.192208 50.171877 C 460.567208 49.328127 458.822416 49.229169 457.077624 48.833335 Z M 457.077624 48.833335 " stroke="#804900" stroke-width="7.240582" stroke-opacity="1" stroke-miterlimit="4"/><g fill="#ffa42b" fill-opacity="1"><g transform="translate(5.711333, 99.374996)"><g><path d="M 35.042969 -51.261719 C 33.015625 -51.261719 30.988281 -51.117188 29.035156 -51.117188 C 27.222656 -51.117188 25.488281 -51.046875 23.675781 -51.261719 C 22.878906 -51.335938 22.082031 -51.191406 21.359375 -51.117188 C 20.199219 -48.511719 19.476562 -45.90625 18.390625 -43.441406 C 17.230469 -40.765625 16.582031 -37.941406 15.203125 -35.332031 C 14.191406 -33.449219 13.902344 -31.277344 13.105469 -29.324219 C 12.527344 -28.019531 12.238281 -26.574219 11.65625 -25.339844 C 10.355469 -22.664062 9.269531 -19.839844 8.109375 -17.085938 C 7.53125 -15.710938 7.167969 -14.335938 6.515625 -13.03125 C 5.503906 -11.148438 4.851562 -9.121094 4.199219 -7.167969 C 3.621094 -5.285156 2.679688 -3.546875 1.953125 -1.738281 C 1.664062 -0.941406 1.808594 -0.507812 2.101562 0 C 4.34375 -0.0742188 6.515625 -0.21875 9.050781 -0.144531 C 9.773438 -1.304688 10.136719 -3.039062 10.859375 -4.5625 C 11.65625 -6.226562 12.238281 -7.890625 12.960938 -9.703125 C 19.1875 -9.339844 25.414062 -10.210938 31.714844 -9.628906 C 32.871094 -6.371094 34.246094 -3.113281 35.332031 0.144531 C 35.984375 0.433594 36.566406 0 37.070312 0.0742188 C 40.402344 0.144531 43.734375 0.0742188 47.0625 -0.144531 C 49.164062 -0.289062 51.261719 0 53.363281 -0.363281 C 54.015625 -0.507812 54.882812 -0.0742188 55.390625 -1.011719 C 48.4375 -17.449219 42.9375 -34.464844 35.839844 -50.972656 C 35.695312 -51.046875 35.332031 -51.261719 35.042969 -51.261719 Z M 22.734375 -34.972656 C 24.980469 -29.035156 26.863281 -22.953125 29.105469 -16.941406 C 24.546875 -16.796875 20.128906 -16.507812 15.710938 -16.796875 C 18.171875 -22.734375 19.910156 -29.035156 22.734375 -34.972656 Z M 22.734375 -34.972656 "/></g></g></g><g fill="#ffa42b" fill-opacity="1"><g transform="translate(63.05083, 99.374996)"><g><path d="M 19.257812 -50.972656 C 18.464844 -50.902344 17.667969 -50.683594 16.871094 -50.757812 C 13.105469 -51.191406 9.414062 -50.972656 5.648438 -50.972656 C 5.214844 -50.972656 4.632812 -51.046875 4.34375 -50.609375 C 4.488281 -33.886719 4.273438 -16.871094 4.707031 0 C 5.503906 0.21875 17.230469 0.21875 18.246094 0 C 18.898438 -1.230469 19.476562 -2.679688 20.128906 -3.980469 C 21.433594 -3.1875 22.664062 -2.460938 23.894531 -1.808594 C 26.574219 -0.433594 29.324219 0.867188 32.4375 1.011719 C 33.886719 1.085938 35.40625 0.941406 36.855469 0.867188 C 41.269531 0.722656 44.746094 -1.304688 47.351562 -4.777344 C 49.453125 -7.601562 50.609375 -10.859375 51.335938 -14.265625 C 52.058594 -17.667969 52.058594 -21.070312 51.550781 -24.546875 C 51.335938 -26.644531 50.683594 -28.671875 49.378906 -30.484375 C 47.859375 -32.582031 46.121094 -34.539062 43.949219 -36.058594 C 41.125 -38.085938 37.867188 -38.882812 34.539062 -39.027344 C 31.207031 -39.171875 28.09375 -37.941406 25.050781 -36.636719 C 24.472656 -36.417969 23.964844 -36.203125 23.53125 -35.695312 C 23.097656 -35.117188 22.375 -34.972656 21.722656 -34.175781 C 21.648438 -34.464844 21.648438 -35.332031 21.648438 -35.550781 L 21.648438 -48.875 C 21.648438 -49.597656 21.722656 -50.320312 21.070312 -50.828125 C 20.492188 -51.117188 19.910156 -50.972656 19.257812 -50.972656 Z M 25.992188 -30.265625 C 29.179688 -31.640625 32.074219 -30.699219 33.742188 -27.152344 C 34.464844 -25.632812 34.828125 -23.964844 34.828125 -22.226562 C 34.753906 -19.910156 35.042969 -17.59375 34.390625 -15.351562 C 33.8125 -13.46875 33.160156 -11.585938 32.148438 -9.917969 C 29.757812 -5.9375 26.210938 -6.007812 22.878906 -8.90625 C 22.589844 -9.195312 22.300781 -9.558594 21.9375 -9.992188 C 21.648438 -15.710938 21.722656 -21.433594 22.011719 -27.152344 C 23.097656 -28.527344 24.472656 -29.613281 25.992188 -30.265625 Z M 25.992188 -30.265625 "/></g></g></g><g fill="#ffa42b" fill-opacity="1"><g transform="translate(118.218376, 99.374996)"><g><path d="M 9.847656 -52.855469 C 7.601562 -52.132812 5.71875 -51.191406 4.851562 -48.800781 C 4.5625 -47.933594 4.34375 -47.0625 4.5625 -46.265625 C 5.140625 -42.355469 7.890625 -40.835938 11.148438 -40.621094 C 12.308594 -40.621094 13.394531 -40.472656 14.480469 -40.546875 C 17.449219 -40.765625 19.984375 -41.777344 21.503906 -44.746094 C 22.15625 -46.050781 22.226562 -48.800781 20.996094 -50.175781 C 19.984375 -51.261719 18.824219 -52.203125 17.304688 -52.785156 C 14.769531 -53.796875 12.308594 -53.652344 9.847656 -52.855469 Z M 21.359375 -38.15625 C 15.855469 -38.011719 9.917969 -38.300781 4.921875 -37.941406 C 4.417969 -37.433594 4.34375 -37 4.34375 -36.566406 C 4.417969 -35.476562 4.417969 -33.886719 4.488281 -32.871094 C 4.777344 -29.902344 4.632812 -27.367188 4.632812 -24.472656 C 4.632812 -21.578125 4.34375 -18.679688 4.34375 -15.710938 C 4.417969 -11.800781 4.707031 -7.964844 4.632812 -4.054688 C 4.632812 -2.75 4.488281 -1.519531 4.707031 -0.0742188 C 10.28125 0.0742188 15.855469 0.0742188 21.359375 -0.144531 C 22.011719 -0.796875 21.9375 -1.375 21.867188 -1.953125 C 21.722656 -2.96875 21.648438 -3.910156 21.722656 -4.921875 C 21.722656 -8.472656 21.867188 -11.875 21.867188 -15.351562 C 21.792969 -18.898438 21.792969 -22.445312 21.792969 -25.992188 C 21.792969 -29.105469 21.9375 -32.726562 21.9375 -35.839844 C 22.011719 -36.566406 21.9375 -37.359375 21.359375 -38.15625 Z M 21.359375 -38.15625 "/></g></g></g><g fill="#ffa42b" fill-opacity="1"><g transform="translate(144.354185, 99.374996)"><g><path d="M 22.734375 -38.738281 C 20.5625 -38.445312 18.390625 -37.722656 16.292969 -37 C 10.136719 -34.828125 6.007812 -30.773438 4.128906 -24.402344 C 3.257812 -21.359375 3.113281 -18.390625 3.402344 -15.277344 C 3.691406 -12.382812 4.707031 -9.703125 6.371094 -7.386719 C 8.90625 -3.910156 12.089844 -1.230469 16.507812 -0.21875 C 16.582031 -0.21875 16.652344 -0.144531 16.796875 -0.144531 C 19.1875 0.867188 21.722656 1.011719 24.253906 1.230469 C 26.5 1.449219 28.746094 1.230469 30.917969 1.230469 C 36.417969 0.941406 41.488281 -0.289062 45.6875 -4.128906 C 46.628906 -4.921875 47.28125 -5.9375 48.078125 -6.949219 C 49.308594 -8.542969 50.175781 -10.355469 50.683594 -12.382812 C 51.335938 -15.203125 51.625 -18.101562 51.046875 -20.996094 C 50.464844 -23.820312 49.742188 -26.5 48.222656 -28.960938 C 46.050781 -32.363281 43.296875 -34.898438 39.679688 -36.492188 C 37.578125 -37.433594 35.40625 -38.15625 33.160156 -38.59375 C 29.6875 -39.242188 26.210938 -39.242188 22.734375 -38.738281 Z M 27.949219 -31.0625 C 29.394531 -30.917969 30.484375 -30.191406 31.421875 -29.179688 C 33.234375 -27.222656 33.523438 -24.472656 33.667969 -21.9375 L 33.667969 -18.898438 C 33.667969 -16.292969 33.523438 -13.683594 32.726562 -11.222656 C 32.292969 -9.992188 31.714844 -8.832031 30.773438 -7.964844 C 28.527344 -5.648438 25.488281 -6.226562 23.605469 -8.617188 C 23.023438 -9.269531 22.445312 -10.136719 22.15625 -10.933594 C 21.214844 -13.394531 21.070312 -16 20.925781 -18.535156 C 20.707031 -21.722656 21.722656 -24.691406 22.808594 -27.660156 C 23.605469 -29.902344 25.703125 -31.277344 27.949219 -31.0625 Z M 27.949219 -31.0625 "/></g></g></g><g fill="#ffa42b" fill-opacity="1"><g transform="translate(198.942546, 99.374996)"><g><path d="M 49.453125 -51.117188 C 48.511719 -51.046875 47.570312 -50.828125 46.703125 -50.972656 C 44.167969 -51.261719 41.558594 -50.972656 39.027344 -51.117188 C 37.578125 -51.191406 36.058594 -50.902344 34.539062 -50.757812 C 33.8125 -48.148438 34.320312 -45.46875 34.246094 -42.863281 C 34.175781 -40.328125 34.03125 -37 34.246094 -34.320312 C 33.523438 -34.972656 33.089844 -35.1875 32.800781 -35.476562 C 31.929688 -36.203125 30.917969 -37 29.832031 -37.359375 C 28.671875 -37.722656 27.804688 -38.445312 26.574219 -38.59375 C 23.675781 -38.953125 20.636719 -39.316406 17.667969 -38.738281 C 13.613281 -38.011719 10.5 -35.914062 7.890625 -32.800781 C 6.300781 -30.84375 5.429688 -28.601562 4.5625 -26.429688 C 3.765625 -24.328125 3.332031 -22.082031 3.257812 -19.910156 C 3.257812 -16.507812 4.128906 -13.394531 5.066406 -10.28125 C 5.9375 -7.53125 7.386719 -5.214844 9.917969 -3.546875 C 13.324219 -1.085938 17.015625 0.507812 21.140625 0.867188 C 22.953125 1.011719 24.691406 1.011719 26.429688 1.085938 C 28.601562 1.230469 30.554688 0.507812 32.4375 -0.507812 C 34.246094 -1.519531 35.984375 -2.605469 37.433594 -4.199219 C 38.808594 -3.113281 38.738281 -0.867188 40.257812 0.0742188 C 43.226562 -0.0742188 46.410156 -0.289062 49.667969 -0.0742188 C 50.25 0 50.683594 -0.289062 50.972656 -0.867188 C 50.828125 -3.691406 50.972656 -6.878906 50.972656 -9.628906 C 51.117188 -17.59375 51.261719 -25.558594 51.046875 -33.523438 C 50.972656 -38.375 50.902344 -43.152344 51.117188 -48.078125 C 51.117188 -48.730469 50.972656 -49.378906 50.902344 -50.03125 C 50.757812 -50.828125 50.320312 -51.191406 49.453125 -51.117188 Z M 31.929688 -29.902344 C 33.449219 -28.890625 34.320312 -27.585938 34.246094 -25.632812 C 34.175781 -20.492188 34.246094 -15.277344 34.246094 -10.136719 C 33.304688 -8.6875 31.929688 -7.964844 30.628906 -7.242188 C 29.542969 -6.660156 28.382812 -6.734375 27.296875 -7.167969 C 24.546875 -8.253906 23.167969 -10.570312 22.519531 -13.324219 C 21.578125 -16.726562 21.578125 -20.347656 22.375 -23.820312 C 22.808594 -25.632812 23.097656 -27.441406 24.328125 -28.890625 C 26.136719 -31.132812 29.542969 -31.570312 31.929688 -29.902344 Z M 31.929688 -29.902344 "/></g></g></g><g fill="#ffa42b" fill-opacity="1"><g transform="translate(254.3273, 99.374996)"><g><path d="M 46.703125 -38.085938 C 45.761719 -37.941406 44.820312 -37.941406 43.949219 -37.867188 C 40.328125 -37.867188 36.78125 -37.796875 33.234375 -37.722656 C 32.003906 -37.722656 31.785156 -37.433594 31.785156 -36.347656 C 31.714844 -35.117188 31.785156 -33.957031 31.859375 -32.726562 C 32.003906 -29.757812 32.21875 -26.789062 32.003906 -23.820312 C 31.785156 -20.636719 31.785156 -16.796875 31.859375 -13.613281 C 32.003906 -10.789062 31.570312 -9.703125 29.25 -8.328125 C 27.007812 -7.023438 24.402344 -8.542969 23.3125 -10.210938 C 22.082031 -12.089844 21.578125 -14.117188 21.578125 -16.363281 C 21.648438 -22.011719 21.578125 -27.585938 21.578125 -33.234375 C 21.578125 -34.609375 21.578125 -36.058594 21.433594 -37.359375 C 20.417969 -37.796875 6.15625 -37.941406 4.851562 -37.578125 C 4.417969 -36.492188 4.488281 -35.332031 4.488281 -34.246094 C 4.632812 -29.035156 4.199219 -23.894531 4.34375 -18.679688 C 4.417969 -16.21875 4.417969 -13.683594 4.5625 -11.222656 C 4.707031 -8.976562 5.214844 -6.804688 6.949219 -4.921875 C 9.558594 -2.027344 12.597656 -0.144531 16.507812 0.363281 C 18.320312 0.578125 20.128906 0.652344 21.9375 0.796875 C 25.703125 1.160156 28.457031 0 31.570312 -1.953125 C 33.015625 -2.824219 33.449219 -3.332031 34.609375 -4.488281 C 36.636719 -3.402344 36.925781 -1.304688 38.59375 0.363281 C 41.996094 -0.0742188 46.050781 0.0742188 49.667969 -0.21875 C 49.308594 -12.597656 48.875 -25.414062 49.089844 -37.433594 C 48.292969 -38.300781 47.425781 -38.230469 46.703125 -38.085938 Z M 46.703125 -38.085938 "/></g></g></g><g fill="#ffa42b" fill-opacity="1"><g transform="translate(308.481289, 99.374996)"><g><path d="M 40.039062 -38.375 C 35.1875 -39.53125 30.699219 -38.445312 26.210938 -36.78125 C 24.109375 -35.984375 22.300781 -34.828125 20.417969 -33.523438 C 19.113281 -34.609375 18.464844 -36.566406 17.523438 -37.796875 C 11.945312 -38.445312 8.761719 -37.867188 4.417969 -37.796875 C 4.273438 -25.269531 4.34375 -12.453125 4.777344 0 L 19.621094 0 C 20.5625 0 21.503906 0.0742188 22.300781 -0.652344 C 22.375 -3.765625 22.082031 -6.734375 22.011719 -9.773438 C 21.867188 -14.480469 21.9375 -19.113281 21.9375 -23.820312 C 21.9375 -24.90625 22.15625 -25.992188 22.445312 -26.933594 C 24.109375 -28.164062 25.558594 -29.542969 27.441406 -30.265625 C 30.410156 -31.351562 33.597656 -29.46875 33.160156 -26.136719 C 33.160156 -23.894531 33.089844 -22.011719 33.234375 -19.910156 C 33.449219 -16.941406 33.378906 -13.902344 33.378906 -10.859375 C 33.378906 -8.109375 33.449219 -5.285156 33.449219 -2.460938 C 33.449219 -1.808594 33.304688 -1.011719 33.667969 -0.289062 C 34.320312 0.363281 34.972656 0.363281 35.769531 0.363281 C 37.578125 0.21875 39.097656 0.144531 40.910156 0.144531 C 44.023438 0.0742188 47.136719 0.0742188 50.25 0 C 50.609375 0 50.902344 0 51.191406 -0.363281 C 51.046875 -5.9375 51.046875 -11.585938 50.828125 -17.230469 C 50.683594 -20.636719 50.902344 -24.039062 50.683594 -27.441406 C 50.394531 -32.148438 47.789062 -35.1875 43.878906 -37.359375 C 42.648438 -38.011719 41.34375 -38.085938 40.039062 -38.375 Z M 40.039062 -38.375 "/></g></g></g><path stroke-linecap="butt" transform="matrix(0.75, 0, 0, 0.75, 351.984093, -25.259471)" fill="none" stroke-linejoin="miter" d="M 20.937877 97.9293 C 20.937877 99.507425 20.609752 100.918884 19.953502 102.163676 C 19.318085 103.387634 18.45871 104.424092 17.385794 105.262634 C 16.328502 106.085551 15.109752 106.715759 13.729543 107.153259 C 12.354543 107.606384 10.911835 107.830343 9.39621 107.830343 C 6.776418 107.830343 4.55246 107.127217 2.719126 105.715759 C 0.906626 104.304301 0.00037601 102.085551 0.00037601 99.064717 C 0.00037601 97.465759 0.312876 96.0543 0.932668 94.830342 C 1.552459 93.58555 2.375376 92.5543 3.401418 91.731383 C 4.443085 90.908467 5.625376 90.267842 6.953501 89.814716 C 8.297251 89.361591 9.693085 89.137633 11.135793 89.137633 C 13.95871 89.137633 16.292044 89.840758 18.141002 91.252217 C 20.005586 92.663675 20.937877 94.887633 20.937877 97.9293 Z M 20.937877 97.9293 " stroke="#bfbfbf" stroke-width="7.740525" stroke-opacity="1" stroke-miterlimit="4"/><g fill="#ffa42b" fill-opacity="1"><g transform="translate(351.984093, 54.990524)"><g><path d="M 15.71875 -6.8125 C 15.71875 -5.625 15.472656 -4.566406 14.984375 -3.640625 C 14.492188 -2.710938 13.847656 -1.9375 13.046875 -1.3125 C 12.242188 -0.695312 11.328125 -0.222656 10.296875 0.109375 C 9.265625 0.453125 8.179688 0.625 7.046875 0.625 C 5.085938 0.625 3.421875 0.0976562 2.046875 -0.953125 C 0.679688 -2.015625 0 -3.679688 0 -5.953125 C 0 -7.140625 0.226562 -8.195312 0.6875 -9.125 C 1.15625 -10.0625 1.773438 -10.835938 2.546875 -11.453125 C 3.328125 -12.078125 4.21875 -12.554688 5.21875 -12.890625 C 6.226562 -13.222656 7.273438 -13.390625 8.359375 -13.390625 C 10.472656 -13.390625 12.226562 -12.859375 13.625 -11.796875 C 15.019531 -10.742188 15.71875 -9.082031 15.71875 -6.8125 Z M 15.71875 -6.8125 "/></g></g></g></svg>